<?xml version="1.0" encoding="UTF-8"?>
<svg id="Calque_2" xmlns="http://www.w3.org/2000/svg" viewBox="0 0 447.97 224.87">
  <defs>
    <style>
      .cls-1 {
        fill: #00529c;
        fill-rule: evenodd;
      }
    </style>
  </defs>
  <g id="Calque_1-2" data-name="Calque_1">
    <path class="cls-1" d="M20.04,7.65h407.76c6.93,0,12.6,5.67,12.6,12.6v185.03c0,6.93-5.67,12.6-12.6,12.6H20.04c-6.93,0-12.6-5.67-12.6-12.6V20.25c0-6.93,5.67-12.6,12.6-12.6M19.51,0h408.94c10.73,0,19.51,8.78,19.51,19.51v185.85c0,10.73-8.78,19.51-19.51,19.51H19.51c-10.73,0-19.51-8.78-19.51-19.51V19.51C0,8.78,8.78,0,19.51,0Z"/>
    <path class="cls-1" d="M95.41,113.63c0,2.58-.33,4.91-.98,6.97-.65,2.08-1.51,3.89-2.57,5.47-1.08,1.58-2.33,2.93-3.77,4.04-1.44,1.1-2.93,2.01-4.48,2.72-1.54.71-3.1,1.22-4.7,1.57-1.6.33-3.09.5-4.49.5H24.01v-13.12h50.41c2.5,0,4.46-.74,5.85-2.22,1.39-1.48,2.09-3.46,2.09-5.94,0-1.22-.19-2.32-.55-3.34-.38-1-.91-1.88-1.59-2.62-.69-.74-1.53-1.31-2.5-1.72-.99-.4-2.09-.6-3.29-.6h-30.05c-2.11,0-4.39-.38-6.83-1.14-2.45-.76-4.72-1.96-6.81-3.65-2.11-1.69-3.84-3.89-5.23-6.61-1.39-2.72-2.09-6.04-2.09-9.98s.7-7.25,2.09-9.97c1.39-2.7,3.12-4.91,5.23-6.59,2.09-1.7,4.36-2.93,6.81-3.68,2.44-.76,4.72-1.14,6.83-1.14h44.47v13.1h-44.47c-2.49,0-4.41.76-5.8,2.27-1.39,1.51-2.09,3.51-2.09,6.01s.7,4.51,2.09,5.97c1.39,1.46,3.31,2.2,5.8,2.2h30.15c1.41.03,2.9.22,4.46.57,1.58.36,3.16.91,4.7,1.63,1.56.74,3.05,1.69,4.46,2.81,1.41,1.14,2.66,2.48,3.74,4.06,1.08,1.58,1.96,3.39,2.59,5.44.63,2.05.94,4.37.94,6.97M170.64,75.69h-28.78v59.21h-13.07v-59.21h-28.85v-13.1h70.7v13.1ZM244.75,134.91h-47.13c-1.2,0-2.5-.14-3.89-.43-1.39-.28-2.76-.72-4.12-1.34-1.35-.6-2.66-1.38-3.89-2.34-1.25-.95-2.33-2.12-3.29-3.48-.96-1.36-1.72-2.94-2.28-4.73-.58-1.81-.86-3.84-.86-6.08v-35.51c0-1.21.14-2.51.43-3.91.27-1.39.72-2.77,1.32-4.13.6-1.36,1.39-2.67,2.37-3.91.98-1.24,2.13-2.34,3.5-3.3,1.35-.96,2.92-1.72,4.7-2.29,1.77-.59,3.77-.86,6.02-.86h47.13v13.1h-47.13c-1.71,0-3.02.46-3.91,1.38-.91.9-1.37,2.24-1.37,4.03v35.41c0,1.67.46,2.98,1.39,3.91.93.91,2.21,1.38,3.89,1.38h47.13v13.12ZM355.08,134.91h-47.13c-1.2,0-2.5-.14-3.89-.43-1.39-.28-2.76-.72-4.12-1.34-1.36-.6-2.66-1.38-3.89-2.34-1.25-.95-2.33-2.12-3.29-3.48-.96-1.36-1.71-2.94-2.28-4.73-.58-1.81-.86-3.84-.86-6.08v-35.51c0-1.21.14-2.51.43-3.91.27-1.39.72-2.77,1.32-4.13.6-1.36,1.39-2.67,2.37-3.91.98-1.24,2.13-2.34,3.5-3.3,1.35-.96,2.92-1.72,4.7-2.29,1.77-.59,3.77-.86,6.02-.86h47.13v13.1h-47.13c-1.71,0-3.02.46-3.91,1.38-.91.9-1.37,2.24-1.37,4.03v35.41c0,1.67.46,2.98,1.39,3.91.93.91,2.21,1.38,3.89,1.38h47.13v13.12ZM411.35,98.85c0-1.81-.45-3.15-1.36-4.03-.91-.88-2.21-1.31-3.93-1.31h-23.46c-1.73,0-3.05.45-3.96,1.33-.91.89-1.35,2.2-1.35,3.91v17.76c0,1.7.45,3.01,1.35,3.92.91.91,2.23,1.36,3.96,1.36h23.46c1.78,0,3.1-.45,3.98-1.36.88-.91,1.3-2.22,1.3-3.92v-17.66ZM424.42,116.51c0,2.24-.29,4.27-.86,6.08-.57,1.79-1.32,3.37-2.26,4.73-.94,1.36-2.02,2.53-3.26,3.48-1.25.96-2.54,1.74-3.89,2.34-1.36.62-2.74,1.07-4.13,1.34-1.39.29-2.69.43-3.94.43h-23.57c-1.8,0-3.77-.33-5.92-.96-2.14-.64-4.13-1.69-5.95-3.15-1.83-1.46-3.36-3.36-4.58-5.7-1.22-2.34-1.84-5.2-1.84-8.59v-17.76c0-3.36.62-6.2,1.84-8.54,1.22-2.34,2.74-4.23,4.58-5.7,1.82-1.46,3.81-2.51,5.95-3.15,2.14-.64,4.12-.96,5.92-.96h23.57c3.36,0,6.21.6,8.54,1.81,2.35,1.22,4.25,2.74,5.69,4.58,1.44,1.82,2.49,3.82,3.14,5.97.65,2.15.98,4.15.98,5.99v17.76ZM24.69,147.83h398.46c.7,0,1.27.57,1.27,1.27v4.67c0,.7-.57,1.27-1.27,1.27H24.69c-.7,0-1.27-.57-1.27-1.27v-4.67c0-.7.57-1.27,1.27-1.27ZM36.22,173.07c0,.46-.06.87-.17,1.23-.12.37-.27.69-.46.97-.19.28-.41.52-.67.72-.26.2-.52.36-.8.48-.27.12-.55.22-.84.28-.28.06-.55.09-.8.09h-8.97v-2.32h8.97c.45,0,.79-.13,1.04-.39.25-.26.37-.61.37-1.05,0-.22-.03-.41-.1-.59-.07-.18-.16-.33-.28-.46-.12-.13-.27-.23-.45-.3-.18-.07-.37-.11-.59-.11h-5.35c-.38,0-.78-.07-1.21-.2-.44-.13-.84-.35-1.21-.65-.38-.3-.68-.69-.93-1.17-.25-.48-.37-1.07-.37-1.77s.12-1.28.37-1.76c.25-.48.56-.87.93-1.17.37-.3.78-.52,1.21-.65.43-.13.84-.2,1.21-.2h7.91v2.32h-7.91c-.44,0-.78.13-1.03.4-.25.27-.37.62-.37,1.06s.13.8.37,1.06c.25.26.59.39,1.03.39h5.36c.25,0,.52.04.79.1.28.06.56.16.84.29.28.13.54.3.79.5.25.2.47.44.66.72.19.28.35.6.46.96.11.36.17.77.17,1.23ZM46.08,170.45c0-.32-.08-.56-.24-.71-.16-.16-.39-.23-.7-.23h-4.17c-.31,0-.54.08-.7.23-.16.16-.24.39-.24.69v3.15c0,.3.08.53.24.7.16.16.4.24.7.24h4.17c.32,0,.55-.08.71-.24.16-.16.23-.39.23-.7v-3.13ZM48.41,173.58c0,.4-.05.76-.15,1.08-.1.32-.23.6-.4.84-.17.24-.36.45-.58.62-.22.17-.45.31-.69.41-.24.11-.49.19-.74.24-.25.05-.48.08-.7.08h-4.19c-.32,0-.67-.06-1.05-.17-.38-.11-.74-.3-1.06-.56-.33-.26-.6-.59-.81-1.01-.22-.41-.33-.92-.33-1.52v-3.15c0-.59.11-1.1.33-1.51.22-.41.49-.75.81-1.01.32-.26.68-.45,1.06-.56.38-.11.73-.17,1.05-.17h4.19c.6,0,1.1.11,1.52.32.42.22.76.49,1.01.81.26.32.44.68.56,1.06.12.38.17.73.17,1.06v3.15ZM54.63,176.84h-1.04c-.33,0-.69-.06-1.07-.17-.38-.11-.73-.3-1.06-.56-.33-.26-.6-.59-.81-1.01-.21-.41-.32-.92-.32-1.52v-10.48h2.32v10.48c0,.28.09.51.27.68.18.17.4.25.67.25h1.04v2.32ZM66.54,175.67c0,.17-.03.32-.09.47-.06.14-.14.27-.25.37-.1.1-.23.19-.37.25-.14.06-.29.09-.45.09h-5.25c-.29,0-.59-.03-.92-.1-.32-.07-.64-.17-.96-.32-.32-.15-.62-.33-.92-.56-.29-.22-.55-.49-.77-.81-.22-.32-.4-.69-.53-1.1-.13-.42-.2-.89-.2-1.41v-5.36h2.32v5.36c0,.3.05.58.16.82.1.24.24.45.42.62.18.17.39.31.63.4.24.09.5.14.78.14h4.07v-7.33h2.32v8.48ZM77.51,169.5h-4.06v7.33h-2.35v-7.33h-3.02v-2.32h3.02v-3.15h2.35v3.15h4.06v2.32ZM81.4,176.84h-2.32v-9.65h2.32v9.65ZM81.4,165.2h-2.32v-2.1h2.32v2.1ZM91.81,170.45c0-.32-.08-.56-.24-.71-.16-.16-.39-.23-.7-.23h-4.17c-.31,0-.54.08-.7.23-.16.16-.24.39-.24.69v3.15c0,.3.08.53.24.7.16.16.4.24.7.24h4.17c.32,0,.55-.08.71-.24.16-.16.23-.39.23-.7v-3.13ZM94.13,173.58c0,.4-.05.76-.15,1.08-.1.32-.24.6-.4.84-.17.24-.36.45-.58.62-.22.17-.45.31-.69.41-.24.11-.49.19-.74.24-.25.05-.48.08-.7.08h-4.19c-.32,0-.67-.06-1.05-.17-.38-.11-.74-.3-1.06-.56-.33-.26-.6-.59-.81-1.01-.22-.41-.33-.92-.33-1.52v-3.15c0-.59.11-1.1.33-1.51.22-.41.49-.75.81-1.01.32-.26.68-.45,1.06-.56.38-.11.73-.17,1.05-.17h4.19c.6,0,1.1.11,1.52.32.42.22.76.49,1.01.81.26.32.44.68.56,1.06.12.38.17.73.17,1.06v3.15ZM106.82,176.84h-2.32v-5.36c0-.3-.05-.58-.16-.82-.1-.24-.24-.45-.42-.62-.18-.17-.39-.3-.63-.4-.24-.09-.5-.14-.78-.14h-4.07v7.33h-2.32v-8.5c0-.16.03-.31.09-.45.06-.14.14-.26.25-.37.11-.1.23-.19.38-.25.14-.06.3-.09.46-.09h5.24c.29,0,.6.03.92.1.33.07.65.17.97.32.32.15.62.33.91.55.29.22.55.49.77.81.23.32.4.69.53,1.1.13.42.2.89.2,1.41v5.36ZM126.46,166.35h-5.12v10.49h-2.32v-10.49h-5.13v-2.32h12.58v2.32ZM137.28,170.38c0,.32-.06.67-.17,1.04-.11.37-.3.72-.55,1.04-.25.32-.59.59-.99.8-.41.22-.91.32-1.49.32h-4.19v-2.21h4.19c.31,0,.56-.1.73-.29.17-.2.26-.43.26-.72,0-.31-.1-.54-.29-.71-.19-.17-.43-.26-.7-.26h-4.19c-.32,0-.56.09-.73.29-.17.19-.26.43-.26.72v3.24c0,.31.09.55.29.72.19.17.43.26.72.26h4.17v2.22h-4.19c-.32,0-.67-.06-1.04-.17-.38-.11-.72-.3-1.04-.55-.32-.25-.59-.58-.8-.99-.21-.41-.32-.9-.32-1.49v-3.26c0-.32.06-.67.17-1.04.11-.37.3-.72.55-1.04.25-.32.58-.59.99-.8.41-.21.9-.32,1.49-.32h4.19c.32,0,.67.06,1.04.17.37.11.72.3,1.04.55.32.25.59.58.8.99.21.41.32.9.32,1.49ZM148.2,176.84h-6.3c-.32,0-.67-.06-1.05-.17-.38-.11-.74-.3-1.06-.56-.33-.26-.6-.59-.81-1.01-.22-.41-.33-.92-.33-1.52v-3.15c0-.22.02-.45.08-.7.05-.24.13-.49.23-.73.11-.24.25-.47.42-.69.17-.22.38-.41.62-.58.24-.17.52-.3.84-.4.31-.1.67-.15,1.07-.15h6.3v2.32h-6.3c-.3,0-.53.08-.69.23-.16.16-.24.39-.24.71v3.13c0,.3.08.53.24.7.16.16.4.24.7.24h6.28v2.32ZM152.48,176.84h-2.32v-13.73h2.32v13.73ZM160.87,176.84h-2.33v-6.4c0-.3-.08-.53-.23-.69-.16-.16-.39-.23-.7-.23h-4.19v-2.32h4.19c.22,0,.45.02.7.08.24.05.49.13.73.24.24.11.47.24.69.41.22.17.41.37.58.62.17.24.3.52.4.83.1.31.15.67.15,1.07v6.4ZM173.7,176.84h-2.32v-5.36c0-.3-.05-.58-.16-.82-.1-.24-.24-.45-.42-.62-.18-.17-.39-.3-.63-.4-.24-.09-.5-.14-.78-.14h-4.07v7.33h-2.32v-8.5c0-.16.03-.31.09-.45.06-.14.14-.26.25-.37.11-.1.23-.19.38-.25.14-.06.3-.09.45-.09h5.24c.29,0,.6.03.92.1.33.07.65.17.97.32.32.15.62.33.91.55.29.22.55.49.77.81.23.32.4.69.53,1.1.13.42.2.89.2,1.41v5.36ZM178.1,176.84h-2.32v-9.65h2.32v9.65ZM178.1,165.2h-2.32v-2.1h2.32v2.1ZM190.84,179.85h-2.32v-9.42c0-.3-.08-.53-.23-.69-.16-.16-.39-.23-.71-.23h-4.19c-.28,0-.51.09-.68.26-.17.18-.25.4-.25.66v3.15c0,.3.08.53.24.7.16.16.4.24.7.24h4.17v2.32h-4.19c-.32,0-.67-.06-1.05-.17-.38-.11-.74-.3-1.06-.56-.33-.26-.6-.59-.81-1.01-.22-.41-.33-.92-.33-1.52v-3.15c0-.22.02-.45.08-.7.05-.24.13-.49.24-.73.11-.24.25-.47.42-.69.17-.22.38-.41.62-.58.24-.17.52-.3.84-.4.31-.1.67-.15,1.07-.15h4.19c.22,0,.46.02.7.08.25.05.49.13.74.24.24.11.47.24.69.41.22.17.41.37.58.62.17.24.3.52.4.83.1.31.15.67.15,1.07v9.42ZM203.53,175.67c0,.17-.03.32-.09.47-.06.14-.14.27-.25.37-.1.1-.23.19-.37.25-.14.06-.29.09-.45.09h-5.25c-.29,0-.59-.03-.92-.1-.32-.07-.64-.17-.96-.32-.32-.15-.62-.33-.92-.56-.29-.22-.55-.49-.77-.81-.22-.32-.4-.69-.53-1.1-.13-.42-.2-.89-.2-1.41v-5.36h2.32v5.36c0,.3.05.58.16.82.1.24.24.45.42.62.18.17.39.31.63.4.24.09.5.14.78.14h4.07v-7.33h2.32v8.48ZM216.11,170.38c0,.32-.06.67-.17,1.04-.11.37-.3.72-.55,1.04-.25.32-.59.59-.99.8-.41.22-.91.32-1.49.32h-4.19v-2.21h4.19c.31,0,.56-.1.73-.29.17-.2.26-.43.26-.72,0-.31-.1-.54-.29-.71-.2-.17-.43-.26-.7-.26h-4.19c-.32,0-.56.09-.73.29-.17.19-.26.43-.26.72v3.24c0,.31.09.55.29.72.19.17.43.26.72.26h4.17v2.22h-4.19c-.32,0-.67-.06-1.04-.17-.38-.11-.72-.3-1.04-.55-.32-.25-.59-.58-.8-.99-.21-.41-.32-.9-.32-1.49v-3.26c0-.32.06-.67.17-1.04.11-.37.3-.72.55-1.04.25-.32.58-.59.99-.8.41-.21.9-.32,1.49-.32h4.19c.32,0,.67.06,1.04.17.37.11.72.3,1.04.55.32.25.59.58.8.99.21.41.32.9.32,1.49ZM235.36,176.84h-8.38c-.21,0-.45-.02-.69-.08-.25-.05-.49-.13-.73-.24-.24-.11-.47-.24-.69-.41-.22-.17-.41-.38-.59-.62-.17-.24-.3-.52-.41-.84-.1-.32-.15-.68-.15-1.08v-6.29c0-.21.02-.45.08-.69.05-.25.13-.49.24-.73.11-.24.25-.47.42-.69.17-.22.38-.41.62-.59.24-.17.52-.31.84-.41.31-.1.67-.15,1.07-.15h8.38v2.32h-8.38c-.3,0-.54.08-.7.24-.16.16-.24.4-.24.71v6.27c0,.3.08.53.25.69.17.16.39.24.69.24h8.38v2.32ZM245.37,170.45c0-.32-.08-.56-.24-.71-.16-.16-.39-.23-.7-.23h-4.17c-.31,0-.54.08-.7.23-.16.16-.24.39-.24.69v3.15c0,.3.08.53.24.7.16.16.4.24.7.24h4.17c.32,0,.55-.08.71-.24.16-.16.23-.39.23-.7v-3.13ZM247.69,173.58c0,.4-.05.76-.15,1.08-.1.32-.23.6-.4.84-.17.24-.36.45-.58.62-.22.17-.45.31-.69.41-.24.11-.49.19-.74.24-.25.05-.48.08-.7.08h-4.19c-.32,0-.67-.06-1.05-.17-.38-.11-.74-.3-1.06-.56-.33-.26-.6-.59-.81-1.01-.22-.41-.33-.92-.33-1.52v-3.15c0-.59.11-1.1.33-1.51.22-.41.49-.75.81-1.01.32-.26.68-.45,1.06-.56.38-.11.73-.17,1.05-.17h4.19c.6,0,1.1.11,1.52.32.42.22.76.49,1.01.81.26.32.44.68.56,1.06.12.38.17.73.17,1.06v3.15ZM260.38,176.84h-2.32v-5.36c0-.3-.05-.58-.16-.82-.1-.24-.24-.45-.42-.62-.18-.17-.39-.3-.63-.4-.24-.09-.5-.14-.78-.14h-4.07v7.33h-2.33v-8.5c0-.16.03-.31.09-.45.06-.14.14-.26.25-.37.11-.1.23-.19.38-.25.14-.06.3-.09.45-.09h5.24c.29,0,.6.03.92.1.33.07.65.17.97.32.32.15.62.33.91.55.29.22.55.49.77.81.23.32.4.69.53,1.1.13.42.2.89.2,1.41v5.36ZM270.91,169.5h-4.06v7.33h-2.35v-7.33h-3.02v-2.32h3.02v-3.15h2.35v3.15h4.06v2.32ZM280.85,169.5h-5.23c-.31,0-.56.08-.71.23-.16.16-.24.39-.24.69v6.4h-2.32v-6.4c0-.4.05-.76.15-1.07.1-.32.23-.59.41-.83.17-.24.37-.45.59-.62.22-.17.45-.31.69-.41.24-.11.49-.19.73-.24.25-.05.48-.08.69-.08h5.25v2.32ZM290.6,165.94l-3.11-1.61-3.11,1.61-1.08-1.5,4.19-2.37,4.19,2.37-1.08,1.5ZM290.53,170.45c0-.32-.08-.56-.24-.71-.16-.16-.39-.23-.7-.23h-4.17c-.31,0-.54.08-.7.23-.16.16-.24.39-.24.69v3.15c0,.3.08.53.24.7.16.16.4.24.7.24h4.17c.32,0,.55-.08.71-.24.16-.16.23-.39.23-.7v-3.13ZM292.85,173.58c0,.4-.05.76-.15,1.08-.1.32-.23.6-.4.84-.17.24-.36.45-.58.62-.22.17-.45.31-.69.41-.24.11-.49.19-.74.24-.25.05-.48.08-.7.08h-4.19c-.32,0-.67-.06-1.05-.17-.38-.11-.74-.3-1.06-.56-.33-.26-.6-.59-.81-1.01-.22-.41-.33-.92-.33-1.52v-3.15c0-.59.11-1.1.33-1.51.22-.41.49-.75.81-1.01.32-.26.68-.45,1.06-.56.38-.11.73-.17,1.05-.17h4.19c.6,0,1.1.11,1.52.32.42.22.76.49,1.01.81.26.32.44.68.56,1.06.12.38.17.73.17,1.06v3.15ZM299.07,176.84h-1.04c-.33,0-.69-.06-1.07-.17-.38-.11-.73-.3-1.06-.56-.33-.26-.6-.59-.81-1.01-.21-.41-.32-.92-.32-1.52v-10.48h2.33v10.48c0,.28.09.51.27.68.18.17.4.25.67.25h1.04v2.32ZM310.96,170.38c0,.32-.06.67-.17,1.04-.11.37-.3.72-.55,1.04-.25.32-.59.59-.99.8-.41.22-.91.32-1.49.32h-4.19v-2.21h4.19c.31,0,.56-.1.73-.29.17-.2.26-.43.26-.72,0-.31-.1-.54-.29-.71-.2-.17-.43-.26-.7-.26h-4.19c-.32,0-.56.09-.73.29-.17.19-.26.43-.26.72v3.24c0,.31.1.55.29.72.19.17.43.26.72.26h4.17v2.22h-4.19c-.32,0-.67-.06-1.04-.17-.38-.11-.72-.3-1.04-.55-.32-.25-.59-.58-.8-.99-.21-.41-.32-.9-.32-1.49v-3.26c0-.32.06-.67.17-1.04.11-.37.3-.72.55-1.04.25-.32.58-.59.99-.8.41-.21.9-.32,1.49-.32h4.19c.32,0,.67.06,1.04.17.37.11.72.3,1.04.55.32.25.59.58.8.99.21.41.32.9.32,1.49ZM330.21,176.84h-8.38c-.21,0-.45-.02-.69-.08-.25-.05-.49-.13-.73-.24-.24-.11-.47-.24-.69-.41-.22-.17-.41-.38-.59-.62-.17-.24-.3-.52-.41-.84-.1-.32-.15-.68-.15-1.08v-6.29c0-.21.02-.45.08-.69.05-.25.13-.49.24-.73.11-.24.25-.47.42-.69.17-.22.38-.41.62-.59.24-.17.52-.31.84-.41.31-.1.67-.15,1.07-.15h8.38v2.32h-8.38c-.3,0-.54.08-.7.24-.16.16-.24.4-.24.71v6.27c0,.3.08.53.25.69.16.16.39.24.69.24h8.38v2.32ZM340.22,170.45c0-.32-.08-.56-.24-.71-.16-.16-.39-.23-.7-.23h-4.17c-.31,0-.54.08-.7.23-.16.16-.24.39-.24.69v3.15c0,.3.08.53.24.7.16.16.4.24.7.24h4.17c.32,0,.55-.08.71-.24.16-.16.23-.39.23-.7v-3.13ZM342.55,173.58c0,.4-.05.76-.15,1.08-.1.32-.24.6-.4.84-.17.24-.36.45-.58.62-.22.17-.45.31-.69.41-.24.11-.49.19-.74.24-.25.05-.48.08-.7.08h-4.19c-.32,0-.67-.06-1.05-.17-.38-.11-.74-.3-1.06-.56-.33-.26-.6-.59-.81-1.01-.22-.41-.33-.92-.33-1.52v-3.15c0-.59.11-1.1.33-1.51.22-.41.49-.75.81-1.01.32-.26.68-.45,1.06-.56.38-.11.73-.17,1.05-.17h4.19c.6,0,1.1.11,1.52.32.42.22.76.49,1.01.81.26.32.44.68.56,1.06.12.38.17.73.17,1.06v3.15ZM353.15,176.84h-2.32v-6.4c0-.3-.08-.53-.24-.69-.16-.16-.4-.23-.72-.23h-3.02v7.33h-2.33v-8.5c0-.16.03-.31.09-.45.06-.14.14-.26.25-.37.11-.1.23-.19.38-.25.14-.06.3-.09.45-.09h4.19c.32,0,.67.06,1.04.17.37.11.72.29,1.06.54v-.71h3.15c.22,0,.45.02.7.08.24.05.48.13.73.24.24.11.47.24.69.41.22.17.41.37.58.62.17.24.3.52.4.83.1.31.15.67.15,1.07v6.4h-2.32v-6.4c0-.3-.08-.53-.23-.69-.15-.16-.38-.23-.7-.23h-2.09c.08.28.12.59.12.93v6.4ZM369.14,176.84h-2.32v-6.4c0-.3-.08-.53-.24-.69-.16-.16-.4-.23-.72-.23h-3.02v7.33h-2.32v-8.5c0-.16.03-.31.09-.45.06-.14.14-.26.25-.37.11-.1.23-.19.38-.25.14-.06.3-.09.45-.09h4.19c.32,0,.67.06,1.04.17.37.11.72.29,1.06.54v-.71h3.15c.22,0,.45.02.7.08.24.05.48.13.73.24.24.11.47.24.69.41.22.17.41.37.58.62.17.24.3.52.4.83.1.31.15.67.15,1.07v6.4h-2.32v-6.4c0-.3-.08-.53-.23-.69-.15-.16-.38-.23-.7-.23h-2.09c.08.28.12.59.12.93v6.4ZM386.48,173.64c0,.32-.06.67-.17,1.04-.11.38-.3.72-.55,1.04-.25.32-.58.59-.99.8-.41.21-.9.32-1.49.32h-4.19c-.32,0-.67-.06-1.04-.17-.37-.11-.72-.3-1.04-.55-.32-.25-.59-.58-.8-.99-.22-.41-.32-.9-.32-1.49,0-.32.06-.67.17-1.05.11-.37.3-.72.55-1.04.25-.32.59-.59.99-.8.41-.21.91-.32,1.49-.32h4.19v2.22h-4.19c-.31,0-.56.1-.73.29-.17.2-.26.43-.26.72,0,.3.1.54.3.71.2.17.44.25.71.25h4.17c.32,0,.56-.09.73-.28.17-.19.26-.43.26-.72v-3.24c0-.3-.09-.55-.28-.73-.19-.18-.42-.27-.71-.27h-5.1v-2.21h5.1c.32,0,.67.06,1.04.17.38.11.72.3,1.04.55.32.25.59.58.8.99.21.41.32.9.32,1.49v3.26ZM399.17,176.84h-2.32v-5.36c0-.3-.05-.58-.16-.82-.1-.24-.24-.45-.42-.62-.18-.17-.39-.3-.63-.4-.24-.09-.5-.14-.78-.14h-4.07v7.33h-2.32v-8.5c0-.16.03-.31.09-.45.06-.14.14-.26.25-.37.11-.1.23-.19.38-.25.14-.06.3-.09.45-.09h5.24c.29,0,.6.03.92.1.33.07.65.17.97.32.32.15.62.33.91.55.29.22.55.49.77.81.23.32.4.69.53,1.1.13.42.19.89.19,1.41v5.36ZM411.81,173.58c0,.4-.05.76-.15,1.08-.1.32-.24.6-.4.84-.17.24-.36.45-.58.62-.22.17-.45.31-.69.41-.24.11-.48.19-.73.24-.25.05-.48.08-.7.08h-4.19c-.4,0-.76-.05-1.07-.15-.31-.1-.59-.23-.84-.41-.24-.17-.45-.37-.62-.59-.17-.22-.31-.45-.41-.69-.11-.24-.19-.48-.24-.73-.05-.25-.08-.48-.08-.69v-3.15c0-.59.11-1.1.33-1.51.22-.41.49-.75.81-1.01.32-.26.68-.45,1.06-.56.38-.11.73-.17,1.06-.17h4.19v2.32h-4.17c-.31,0-.55.08-.71.23-.16.16-.24.39-.24.69v3.13c0,.31.08.55.24.71.16.16.39.24.69.24h4.19c.31,0,.55-.08.7-.24.16-.16.23-.39.23-.7v-10.48h2.32v10.48ZM424.42,170.38c0,.32-.06.67-.17,1.04-.11.37-.3.72-.55,1.04-.25.32-.59.59-.99.8-.41.22-.91.32-1.49.32h-4.19v-2.21h4.19c.31,0,.56-.1.73-.29.17-.2.26-.43.26-.72,0-.31-.1-.54-.29-.71-.2-.17-.43-.26-.7-.26h-4.19c-.32,0-.56.09-.73.29-.17.19-.26.43-.26.72v3.24c0,.31.09.55.29.72.19.17.43.26.72.26h4.17v2.22h-4.19c-.32,0-.67-.06-1.04-.17-.38-.11-.72-.3-1.04-.55-.32-.25-.59-.58-.8-.99-.21-.41-.32-.9-.32-1.49v-3.26c0-.32.06-.67.17-1.04.11-.37.3-.72.55-1.04.25-.32.58-.59.99-.8.41-.21.9-.32,1.49-.32h4.19c.32,0,.67.06,1.04.17.37.11.72.3,1.04.55.32.25.59.58.8.99.21.41.32.9.32,1.49Z"/>
  </g>
</svg>